<?xml version="1.0" encoding="utf-8"?>
<!-- Generator: Adobe Illustrator 19.2.1, SVG Export Plug-In . SVG Version: 6.00 Build 0)  -->
<svg version="1.1" id="Layer_1" xmlns="http://www.w3.org/2000/svg" xmlns:xlink="http://www.w3.org/1999/xlink" x="0px" y="0px"
	 viewBox="0 0 801 216.1" style="enable-background:new 0 0 801 216.1;" xml:space="preserve">
<style type="text/css">
	.st0{clip-path:url(#SVGID_2_);fill:#C2CBCB;}
	.st1{clip-path:url(#SVGID_2_);fill:#2E3032;}
	.st2{filter:url(#Adobe_OpacityMaskFilter);}
	.st3{clip-path:url(#SVGID_2_);fill:url(#SVGID_4_);}
	.st4{clip-path:url(#SVGID_2_);mask:url(#SVGID_3_);}
	.st5{clip-path:url(#SVGID_6_);fill:#C2CBCB;}
	.st6{fill:none;stroke:#2E3032;stroke-width:1.5;}
	.st7{clip-path:url(#SVGID_8_);}
	.st8{fill:#7A8080;}
	.st9{clip-path:url(#SVGID_10_);fill:#C4E4ED;}
	.st10{clip-path:url(#SVGID_10_);fill:#2E3032;}
	.st11{fill:#010000;}
	.st12{clip-path:url(#SVGID_12_);fill:#56585F;}
	.st13{clip-path:url(#SVGID_14_);fill:url(#SVGID_15_);}
	.st14{fill:#C2CBCB;}
	.st15{clip-path:url(#SVGID_17_);fill:url(#SVGID_18_);}
	.st16{clip-path:url(#SVGID_20_);fill:url(#SVGID_21_);}
	.st17{clip-path:url(#SVGID_23_);fill:none;stroke:#000000;stroke-width:5;}
	.st18{clip-path:url(#SVGID_23_);}
	.st19{clip-path:url(#SVGID_25_);fill:#FF0000;}
</style>
<g>
	<defs>
		<rect id="SVGID_1_" y="0.9" width="801" height="215.1"/>
	</defs>
	<clipPath id="SVGID_2_">
		<use xlink:href="#SVGID_1_"  style="overflow:visible;"/>
	</clipPath>
	<path class="st0" d="M471,0.9c0,0-211,15-463,60c-15.1,2.7-5.2,5-0.1,29S20,170.8,20,170.8l224.4,11v17c0,5,1.6,5,16.6,5
		s338,6,343,5s7-13,7-15v-5.1l170-0.9c0,0,11.3-0.9,15.3-11.9s0-17,0-17l4.7-48.3c0,0-84-28.7-172-59.7C541.7,20.1,471,0.9,471,0.9"
		/>
	<path class="st1" d="M7.9,89.9c-5.1-24-15-26.3,0.1-29c0.1,0,0.1,0,0.2,0l767.5,40.7c11.6,3.9,25.3,9,25.3,9l-3,49.3c0,0,4,6,0,17
		s-17,18-17,18l-170,0.9v5.1c0,2-2,14-7,15s-328-5-343-5c-15,0-16.6,0-16.6-5v-17L20,177.9C20,177.9,13,113.9,7.9,89.9"/>
	<defs>
		<filter id="Adobe_OpacityMaskFilter" filterUnits="userSpaceOnUse" x="-9" y="53.9" width="819" height="163.1">
			<feFlood  style="flood-color:white;flood-opacity:1" result="back"/>
			<feBlend  in="SourceGraphic" in2="back" mode="normal"/>
		</filter>
	</defs>
	<mask maskUnits="userSpaceOnUse" x="-9" y="53.9" width="819" height="163.1" id="SVGID_3_">
		<g class="st2">
			
				<linearGradient id="SVGID_4_" gradientUnits="userSpaceOnUse" x1="150.9258" y1="333.9593" x2="151.9258" y2="333.9593" gradientTransform="matrix(2246.3333 400.1332 -400.1332 2246.3333 -206846.5625 -810794.5)">
				<stop  offset="0" style="stop-color:#FFFFFF"/>
				<stop  offset="1" style="stop-color:#000000"/>
			</linearGradient>
			<polygon class="st3" points="-37.1,209.4 776.4,354.3 838.1,7.5 24.6,-137.4 			"/>
		</g>
	</mask>
	<g class="st4">
		<g>
			<defs>
				<rect id="SVGID_5_" x="-9" y="53.9" width="819" height="163.1"/>
			</defs>
			<clipPath id="SVGID_6_">
				<use xlink:href="#SVGID_5_"  style="overflow:visible;"/>
			</clipPath>
			<path class="st5" d="M7.9,89.9c-5.1-24-15-26.3,0.1-29c0.1,0,0.1,0,0.2,0l767.5,40.7c11.6,3.9,25.3,9,25.3,9l-3,49.3
				c0,0,4,6,0,17s-17,18-17,18l-170,0.9v5.1c0,2-2,14-7,15s-328-5-343-5c-15,0-16.6,0-16.6-5v-17L20,177.9
				C20,177.9,13,113.9,7.9,89.9"/>
		</g>
	</g>
</g>
<polyline class="st6" points="293,56.3 290.9,73.9 293.5,177.9 "/>
<polyline class="st6" points="440.3,58.9 445.3,81.9 450.3,177.9 "/>
<g>
	<defs>
		<rect id="SVGID_7_" y="0.9" width="801" height="215.1"/>
	</defs>
	<clipPath id="SVGID_8_">
		<use xlink:href="#SVGID_7_"  style="overflow:visible;"/>
	</clipPath>
	<path class="st7" d="M30,150.9v9l64,3l149,5l371,9l150,0.5c0,0,17.5,2.3,34-0.6c0,0,0,0,0,0.1c-4,11-17,18-17,18l-170,0.9v5.1
		c0,2-2,14-7,15s-328-5-343-5s-16.6,0-16.6-5v-17L20,177.9c0,0-1.3-11.7-3.1-27H30z"/>
</g>
<rect x="419.9" y="6" transform="matrix(1.740807e-002 -0.9998 0.9998 1.740807e-002 220.1354 613.8553)" class="st8" width="5" height="377.8"/>
<polyline class="st6" points="601.5,73.9 604.5,93.9 603,194.9 "/>
<g>
	<defs>
		<rect id="SVGID_9_" y="0.9" width="801" height="215.1"/>
	</defs>
	<clipPath id="SVGID_10_">
		<use xlink:href="#SVGID_9_"  style="overflow:visible;"/>
	</clipPath>
	<path class="st9" d="M770.1,100c19.2,6.6,30.9,10.6,30.9,10.6l-0.5,8.7l-30.4-6.8C770,106.9,770.1,102.9,770.1,100"/>
	<path class="st10" d="M764,177.4l-0.7,0v-22.2h6.9c0,2.5,0.1,5.1,0.1,7.7c0,0,17,0.9,27.9-2.6c-0.1-0.2-0.2-0.4-0.2-0.4s4,6,0,16.9
		C781.5,179.7,764,177.4,764,177.4"/>
</g>
<polygon class="st11" points="611.3,172.9 611.3,205.9 601.3,215.9 710.3,214.9 781.3,194.9 763.4,158.9 736.3,113.9 651.3,111.3 
	"/>
<g>
	<defs>
		<rect id="SVGID_11_" y="0.9" width="801" height="215.1"/>
	</defs>
	<clipPath id="SVGID_12_">
		<use xlink:href="#SVGID_11_"  style="overflow:visible;"/>
	</clipPath>
	<path class="st12" d="M798,159.9c0,0,0.1,0.1,0.2,0.3C798.1,160,798,159.9,798,159.9 M798.2,160.2
		C798.2,160.2,798.2,160.2,798.2,160.2C798.2,160.2,798.2,160.2,798.2,160.2C798.2,160.2,798.2,160.2,798.2,160.2 M763.3,159.1
		l7,0.1c0,1.2,0,2.4,0,3.6c0,0,17,0.9,27.9-2.6c0.2,0.4,0.6,1.2,0.9,2.4c-2.4,1.4-10.2,2.7-35.8,2.8V159.1z"/>
</g>
<polygon class="st11" points="207.3,112.9 250.4,164.9 250.4,189.6 244.4,189.9 244.4,188.8 89.3,181.3 89.3,161.9 120.3,108.4 "/>
<polygon points="20.3,178.3 89.3,216 256.3,211.9 256.3,174.9 28.3,159.9 "/>
<g>
	<defs>
		<polygon id="SVGID_13_" points="89.3,163.9 122.3,112.5 206,116 243.3,168.9 243.3,194.9 258.3,194.9 258.3,169.9 213.3,105.9 
			117,102.3 76.3,162.9 		"/>
	</defs>
	<clipPath id="SVGID_14_">
		<use xlink:href="#SVGID_13_"  style="overflow:visible;"/>
	</clipPath>
	
		<linearGradient id="SVGID_15_" gradientUnits="userSpaceOnUse" x1="151.8461" y1="332.9015" x2="152.8461" y2="332.9015" gradientTransform="matrix(-10.5731 -151.2019 151.2019 -10.5731 -48555.0156 26735.9766)">
		<stop  offset="0" style="stop-color:#0C161A"/>
		<stop  offset="0.9396" style="stop-color:#56585F"/>
		<stop  offset="1" style="stop-color:#56585F"/>
	</linearGradient>
	<polygon class="st13" points="264.7,194.4 257.4,89.7 69.8,102.8 77.2,207.6 	"/>
</g>
<polygon class="st14" points="116.8,102.6 122.6,112.5 205.5,116 213.3,106 213.3,105.9 117,102.3 "/>
<g>
	<defs>
		<polygon id="SVGID_16_" points="763.3,163 733.5,117.6 650.9,116.2 611.6,176.5 611.3,200.9 602.8,195.9 602.8,168.6 646,107.8 
			739.3,109.2 774.3,163 		"/>
	</defs>
	<clipPath id="SVGID_17_">
		<use xlink:href="#SVGID_16_"  style="overflow:visible;"/>
	</clipPath>
	
		<linearGradient id="SVGID_18_" gradientUnits="userSpaceOnUse" x1="151.9017" y1="334.5201" x2="152.9017" y2="334.5201" gradientTransform="matrix(-71.8996 -171.0423 -171.0423 71.8996 68878.4297 2205.8174)">
		<stop  offset="0" style="stop-color:#0C161A"/>
		<stop  offset="0.9396" style="stop-color:#56585F"/>
		<stop  offset="1" style="stop-color:#56585F"/>
	</linearGradient>
	<polygon class="st15" points="628.5,262.2 569.5,121.8 748.5,46.5 807.5,186.9 	"/>
</g>
<polygon class="st14" points="650.9,116.2 650.9,116.2 733,117.6 739.4,109.4 739.3,109.2 646.1,107.8 "/>
<g>
	<defs>
		<path id="SVGID_19_" d="M297.2,27.8l-2.8,32.1l403.9,24.7C676.9,77.2,653.4,69,629,60.4c-87.3-30.8-158-50-158-50
			S402.6,15.3,297.2,27.8"/>
	</defs>
	<clipPath id="SVGID_20_">
		<use xlink:href="#SVGID_19_"  style="overflow:visible;"/>
	</clipPath>
	
		<linearGradient id="SVGID_21_" gradientUnits="userSpaceOnUse" x1="151.4669" y1="334.2788" x2="152.4669" y2="334.2788" gradientTransform="matrix(-350.2834 -45.4939 45.4939 -350.2834 38500.8672 124050.8516)">
		<stop  offset="0" style="stop-color:#0C161A"/>
		<stop  offset="0.2452" style="stop-color:#192226"/>
		<stop  offset="0.6984" style="stop-color:#3C4046"/>
		<stop  offset="1" style="stop-color:#56585F"/>
	</linearGradient>
	<polygon class="st16" points="707.7,11.7 301.1,-41.2 284.9,83.3 691.5,136.2 	"/>
</g>
<g>
	<defs>
		<rect id="SVGID_22_" y="0.9" width="801" height="215.1"/>
	</defs>
	<clipPath id="SVGID_23_">
		<use xlink:href="#SVGID_22_"  style="overflow:visible;"/>
	</clipPath>
	<path class="st17" d="M297.2,27.8C402.6,15.3,471,10.4,471,10.4s70.7,19.3,158,50c24.4,8.6,47.9,16.8,69.2,24.1L294.4,59.9
		L297.2,27.8z"/>
	<path class="st18" d="M698.2,84.6L294.4,59.9l1.1-13L642.1,65C661.8,71.9,680.8,78.5,698.2,84.6"/>
	<path class="st18" d="M563.7,38.7c5.7,1.8,11.6,3.8,17.6,5.8l11.4,27.3l-17.5,2.1L563.7,38.7z"/>
	<path class="st18" d="M423.2,14.4c5.7-0.5,11-1,15.7-1.4l11.3,50.9l-23-3L423.2,14.4z"/>
	<path class="st18" d="M307.3,58.9L294,56.1l2.5-28.3c3.7-0.4,7.3-0.9,10.8-1.3V58.9z"/>
</g>
<polygon class="st8" points="90.3,161.9 88.3,164.9 18.3,161.9 18.3,158.9 "/>
<g>
	<defs>
		<rect id="SVGID_24_" y="0.9" width="801" height="215.1"/>
	</defs>
	<clipPath id="SVGID_25_">
		<use xlink:href="#SVGID_24_"  style="overflow:visible;"/>
	</clipPath>
	<path class="st19" d="M6.9,85.7C2.1,67.3-4.9,63.9,5,61.5l7.7,22.3L6.9,85.7z"/>
</g>
</svg>
