<?xml version="1.0" encoding="utf-8"?>
<!-- Generator: Adobe Illustrator 19.2.1, SVG Export Plug-In . SVG Version: 6.00 Build 0)  -->
<svg version="1.1" id="Layer_1" xmlns="http://www.w3.org/2000/svg" xmlns:xlink="http://www.w3.org/1999/xlink" x="0px" y="0px"
	 viewBox="0 0 121.5 121.5" style="enable-background:new 0 0 121.5 121.5;" xml:space="preserve">
<style type="text/css">
	.st0{clip-path:url(#SVGID_2_);fill:#2F3133;}
	.st1{clip-path:url(#SVGID_4_);fill:url(#SVGID_5_);}
	.st2{clip-path:url(#SVGID_7_);fill:url(#SVGID_8_);}
	.st3{clip-path:url(#SVGID_10_);fill:none;stroke:#575960;}
	.st4{clip-path:url(#SVGID_12_);fill:url(#SVGID_13_);}
	.st5{clip-path:url(#SVGID_15_);fill:none;stroke:#575960;}
	.st6{clip-path:url(#SVGID_17_);fill:url(#SVGID_18_);}
	.st7{clip-path:url(#SVGID_20_);fill:none;stroke:#575960;}
	.st8{clip-path:url(#SVGID_22_);fill:url(#SVGID_23_);}
	.st9{clip-path:url(#SVGID_25_);fill:none;stroke:#575960;}
	.st10{clip-path:url(#SVGID_27_);fill:url(#SVGID_28_);}
	.st11{clip-path:url(#SVGID_30_);fill:none;stroke:#575960;}
	.st12{clip-path:url(#SVGID_32_);fill:url(#SVGID_33_);}
	.st13{clip-path:url(#SVGID_35_);fill:none;stroke:#575960;}
	.st14{clip-path:url(#SVGID_37_);fill:url(#SVGID_38_);}
	.st15{clip-path:url(#SVGID_40_);fill:none;stroke:#575960;}
	.st16{clip-path:url(#SVGID_40_);fill:#575960;}
	.st17{clip-path:url(#SVGID_40_);fill:none;stroke:#000000;stroke-width:2;}
	.st18{filter:url(#Adobe_OpacityMaskFilter);}
	.st19{clip-path:url(#SVGID_40_);fill:url(#SVGID_42_);}
	.st20{clip-path:url(#SVGID_40_);mask:url(#SVGID_41_);}
	.st21{clip-path:url(#SVGID_44_);}
</style>
<g>
	<defs>
		<rect id="SVGID_1_" width="121.5" height="121.5"/>
	</defs>
	<clipPath id="SVGID_2_">
		<use xlink:href="#SVGID_1_"  style="overflow:visible;"/>
	</clipPath>
	<path class="st0" d="M22.9,13.2C-3.3,34.1-7.7,72.3,13.2,98.6c20.9,26.3,59.1,30.6,85.4,9.7c26.3-20.9,30.6-59.1,9.7-85.4
		C87.4-3.3,49.2-7.7,22.9,13.2"/>
</g>
<g>
	<defs>
		<path id="SVGID_3_" d="M34.4,27.7c-18.3,14.5-21.3,41.1-6.8,59.4c14.5,18.3,41.1,21.3,59.4,6.8c18.3-14.5,21.3-41.1,6.8-59.4
			c-8.3-10.5-20.7-16-33.1-16C51.5,18.5,42.2,21.5,34.4,27.7"/>
	</defs>
	<clipPath id="SVGID_4_">
		<use xlink:href="#SVGID_3_"  style="overflow:visible;"/>
	</clipPath>
	
		<radialGradient id="SVGID_5_" cx="148.2204" cy="332.5058" r="1" gradientTransform="matrix(-33.0882 26.3196 26.3196 33.0882 -3786.303 -14842.376)" gradientUnits="userSpaceOnUse">
		<stop  offset="0" style="stop-color:#0C161A"/>
		<stop  offset="0.3216" style="stop-color:#0D171C"/>
		<stop  offset="0.4934" style="stop-color:#121B20"/>
		<stop  offset="0.6299" style="stop-color:#1A2228"/>
		<stop  offset="0.7478" style="stop-color:#252D33"/>
		<stop  offset="0.8537" style="stop-color:#343B41"/>
		<stop  offset="0.9495" style="stop-color:#494C54"/>
		<stop  offset="1" style="stop-color:#575960"/>
	</radialGradient>
	<polygon class="st1" points="152.2,73.5 50,154.8 -30.7,53.3 71.5,-27.9 	"/>
</g>
<g>
	<defs>
		<path id="SVGID_6_" d="M55.7,64.7L83,99c0,0,1.9,2.3,4.2,0.5l5.3-4.2c0,0,2.3-1.9,0.5-4.2L65.8,56.8L55.7,64.7z"/>
	</defs>
	<clipPath id="SVGID_7_">
		<use xlink:href="#SVGID_6_"  style="overflow:visible;"/>
	</clipPath>
	
		<linearGradient id="SVGID_8_" gradientUnits="userSpaceOnUse" x1="154.29" y1="338.3134" x2="155.29" y2="338.3134" gradientTransform="matrix(-29.0637 -36.538 -36.538 29.0637 16935.3477 -4097.8848)">
		<stop  offset="0" style="stop-color:#575960"/>
		<stop  offset="7.800585e-002" style="stop-color:#494C52"/>
		<stop  offset="0.1913" style="stop-color:#3B3E43"/>
		<stop  offset="0.3187" style="stop-color:#303438"/>
		<stop  offset="0.4662" style="stop-color:#282D30"/>
		<stop  offset="0.652" style="stop-color:#24292C"/>
		<stop  offset="1" style="stop-color:#22272A"/>
	</linearGradient>
	<polygon class="st2" points="70.9,120.4 34,74 79.7,37.7 116.6,84.1 	"/>
</g>
<g>
	<defs>
		<rect id="SVGID_9_" width="121.5" height="121.5"/>
	</defs>
	<clipPath id="SVGID_10_">
		<use xlink:href="#SVGID_9_"  style="overflow:visible;"/>
	</clipPath>
	<path class="st3" d="M92.5,95.2c0,0,2.3-1.9,0.5-4.2L65.8,56.8l-10,8L83,99c0,0,1.9,2.3,4.2,0.5L92.5,95.2z"/>
</g>
<g>
	<defs>
		<path id="SVGID_11_" d="M60.9,66.8l43.7,0c0,0,3,0,3-3l0-6.8c0,0,0-3-3-3l-43.8,0L60.9,66.8z"/>
	</defs>
	<clipPath id="SVGID_12_">
		<use xlink:href="#SVGID_11_"  style="overflow:visible;"/>
	</clipPath>
	
		<linearGradient id="SVGID_13_" gradientUnits="userSpaceOnUse" x1="151.8542" y1="334.0674" x2="152.8542" y2="334.0674" gradientTransform="matrix(-46.6875 -3.259210e-002 -3.259210e-002 46.6875 7208.208 -15531.4238)">
		<stop  offset="0" style="stop-color:#575960"/>
		<stop  offset="7.800585e-002" style="stop-color:#494C52"/>
		<stop  offset="0.1913" style="stop-color:#3B3E43"/>
		<stop  offset="0.3187" style="stop-color:#303438"/>
		<stop  offset="0.4662" style="stop-color:#282D30"/>
		<stop  offset="0.652" style="stop-color:#24292C"/>
		<stop  offset="1" style="stop-color:#22272A"/>
	</linearGradient>
	<rect x="60.9" y="53.9" class="st4" width="46.8" height="12.9"/>
</g>
<g>
	<defs>
		<rect id="SVGID_14_" width="121.5" height="121.5"/>
	</defs>
	<clipPath id="SVGID_15_">
		<use xlink:href="#SVGID_14_"  style="overflow:visible;"/>
	</clipPath>
	<path class="st5" d="M107.7,57c0,0,0-3-3-3l-43.8,0l0,12.8l43.7,0c0,0,3,0,3-3L107.7,57z"/>
</g>
<g>
	<defs>
		<path id="SVGID_16_" d="M83,21.8L55.8,56l10,8L93,29.8c0,0,1.9-2.3-0.5-4.2l-5.3-4.2c0,0-0.9-0.7-2-0.7
			C84.5,20.6,83.8,20.9,83,21.8"/>
	</defs>
	<clipPath id="SVGID_17_">
		<use xlink:href="#SVGID_16_"  style="overflow:visible;"/>
	</clipPath>
	
		<linearGradient id="SVGID_18_" gradientUnits="userSpaceOnUse" x1="147.0154" y1="333.3348" x2="148.0154" y2="333.3348" gradientTransform="matrix(-29.1146 36.4974 36.4974 29.1146 -7795.4014 -15046.9043)">
		<stop  offset="0" style="stop-color:#575960"/>
		<stop  offset="7.800585e-002" style="stop-color:#494C52"/>
		<stop  offset="0.1913" style="stop-color:#3B3E43"/>
		<stop  offset="0.3187" style="stop-color:#303438"/>
		<stop  offset="0.4662" style="stop-color:#282D30"/>
		<stop  offset="0.652" style="stop-color:#24292C"/>
		<stop  offset="1" style="stop-color:#22272A"/>
	</linearGradient>
	<polygon class="st6" points="116,37.5 79.7,83 34.6,47.1 71,1.5 	"/>
</g>
<g>
	<defs>
		<rect id="SVGID_19_" width="121.5" height="121.5"/>
	</defs>
	<clipPath id="SVGID_20_">
		<use xlink:href="#SVGID_19_"  style="overflow:visible;"/>
	</clipPath>
	<path class="st7" d="M87.3,21.3c0,0-2.3-1.9-4.2,0.5L55.8,56l10,8L93,29.8c0,0,1.9-2.3-0.5-4.2L87.3,21.3z"/>
</g>
<g>
	<defs>
		<path id="SVGID_21_" d="M53.2,13.5l-6.6,1.5c0,0-2.9,0.7-2.3,3.6l9.8,42.6l12.5-2.9l-9.8-42.6c0,0-0.5-2.4-2.8-2.4
			C53.8,13.4,53.5,13.5,53.2,13.5"/>
	</defs>
	<clipPath id="SVGID_22_">
		<use xlink:href="#SVGID_21_"  style="overflow:visible;"/>
	</clipPath>
	
		<linearGradient id="SVGID_23_" gradientUnits="userSpaceOnUse" x1="143.5477" y1="336.7487" x2="144.5477" y2="336.7487" gradientTransform="matrix(11.1079 46.6982 46.6982 -11.1079 -17270.5039 -2948.8167)">
		<stop  offset="0" style="stop-color:#575960"/>
		<stop  offset="7.800585e-002" style="stop-color:#494C52"/>
		<stop  offset="0.1913" style="stop-color:#3B3E43"/>
		<stop  offset="0.3187" style="stop-color:#303438"/>
		<stop  offset="0.4662" style="stop-color:#282D30"/>
		<stop  offset="0.652" style="stop-color:#24292C"/>
		<stop  offset="1" style="stop-color:#22272A"/>
	</linearGradient>
	<polygon class="st8" points="65.3,8.3 77.3,58.7 44.9,66.5 32.9,16 	"/>
</g>
<g>
	<defs>
		<rect id="SVGID_24_" width="121.5" height="121.5"/>
	</defs>
	<clipPath id="SVGID_25_">
		<use xlink:href="#SVGID_24_"  style="overflow:visible;"/>
	</clipPath>
	<path class="st9" d="M46.6,15.1c0,0-2.9,0.7-2.3,3.6l9.8,42.6l12.5-2.9l-9.8-42.6c0,0-0.7-2.9-3.6-2.3L46.6,15.1z"/>
</g>
<g>
	<defs>
		<path id="SVGID_26_" d="M19.3,36.8L16.4,43c0,0-1.3,2.7,1.4,4l39.4,18.9l5.5-11.5L23.3,35.4c0,0-0.6-0.3-1.5-0.3
			C21,35.1,20,35.5,19.3,36.8"/>
	</defs>
	<clipPath id="SVGID_27_">
		<use xlink:href="#SVGID_26_"  style="overflow:visible;"/>
	</clipPath>
	
		<linearGradient id="SVGID_28_" gradientUnits="userSpaceOnUse" x1="143.7818" y1="341.5228" x2="144.7818" y2="341.5228" gradientTransform="matrix(42.0832 20.2171 20.2171 -42.0832 -12937.6699 11505.8389)">
		<stop  offset="0" style="stop-color:#575960"/>
		<stop  offset="7.800585e-002" style="stop-color:#494C52"/>
		<stop  offset="0.1913" style="stop-color:#3B3E43"/>
		<stop  offset="0.3187" style="stop-color:#303438"/>
		<stop  offset="0.4662" style="stop-color:#282D30"/>
		<stop  offset="0.652" style="stop-color:#24292C"/>
		<stop  offset="1" style="stop-color:#22272A"/>
	</linearGradient>
	<polygon class="st10" points="24,16.5 74.8,40.9 53.8,84.5 3.1,60.1 	"/>
</g>
<g>
	<defs>
		<rect id="SVGID_29_" width="121.5" height="121.5"/>
	</defs>
	<clipPath id="SVGID_30_">
		<use xlink:href="#SVGID_29_"  style="overflow:visible;"/>
	</clipPath>
	<path class="st11" d="M16.4,43c0,0-1.3,2.7,1.4,4l39.4,18.9l5.5-11.5L23.3,35.4c0,0-2.7-1.3-4,1.4L16.4,43z"/>
</g>
<g>
	<defs>
		<path id="SVGID_31_" d="M17.8,73.9c0,0-2.7,1.3-1.4,4l3,6.1c0,0,1.3,2.7,4,1.4l39.4-19l-5.6-11.5L17.8,73.9z"/>
	</defs>
	<clipPath id="SVGID_32_">
		<use xlink:href="#SVGID_31_"  style="overflow:visible;"/>
	</clipPath>
	
		<linearGradient id="SVGID_33_" gradientUnits="userSpaceOnUse" x1="147.8247" y1="344.2922" x2="148.8247" y2="344.2922" gradientTransform="matrix(42.0336 -20.3199 -20.3199 -42.0336 800.3159 17556.5234)">
		<stop  offset="0" style="stop-color:#575960"/>
		<stop  offset="7.800585e-002" style="stop-color:#494C52"/>
		<stop  offset="0.1913" style="stop-color:#3B3E43"/>
		<stop  offset="0.3187" style="stop-color:#303438"/>
		<stop  offset="0.4662" style="stop-color:#282D30"/>
		<stop  offset="0.652" style="stop-color:#24292C"/>
		<stop  offset="1" style="stop-color:#22272A"/>
	</linearGradient>
	<polygon class="st12" points="2.6,60.9 53.7,36.1 75.3,80.6 24.1,105.4 	"/>
</g>
<g>
	<defs>
		<rect id="SVGID_34_" width="121.5" height="121.5"/>
	</defs>
	<clipPath id="SVGID_35_">
		<use xlink:href="#SVGID_34_"  style="overflow:visible;"/>
	</clipPath>
	<path class="st13" d="M19.4,84c0,0,1.3,2.7,4,1.4l39.4-19l-5.6-11.5l-39.4,19c0,0-2.7,1.3-1.4,4L19.4,84z"/>
</g>
<g>
	<defs>
		<path id="SVGID_36_" d="M44.4,102.1c0,0-0.7,2.9,2.3,3.6l6.6,1.5c0,0,2.9,0.7,3.6-2.3l9.6-42.7l-12.5-2.8L44.4,102.1z"/>
	</defs>
	<clipPath id="SVGID_37_">
		<use xlink:href="#SVGID_36_"  style="overflow:visible;"/>
	</clipPath>
	
		<linearGradient id="SVGID_38_" gradientUnits="userSpaceOnUse" x1="152.5023" y1="342.8495" x2="153.5023" y2="342.8495" gradientTransform="matrix(10.2959 -45.5381 -45.5381 -10.2959 14092.6035 10580.9824)">
		<stop  offset="0" style="stop-color:#575960"/>
		<stop  offset="7.800585e-002" style="stop-color:#494C52"/>
		<stop  offset="0.1913" style="stop-color:#3B3E43"/>
		<stop  offset="0.3187" style="stop-color:#303438"/>
		<stop  offset="0.4662" style="stop-color:#282D30"/>
		<stop  offset="0.652" style="stop-color:#24292C"/>
		<stop  offset="1" style="stop-color:#22272A"/>
	</linearGradient>
	<polygon class="st14" points="33.4,105.5 44.9,54.5 77,61.8 65.5,112.8 	"/>
</g>
<g>
	<defs>
		<rect id="SVGID_39_" width="121.5" height="121.5"/>
	</defs>
	<clipPath id="SVGID_40_">
		<use xlink:href="#SVGID_39_"  style="overflow:visible;"/>
	</clipPath>
	<path class="st15" d="M53.3,107.2c0,0,2.9,0.7,3.6-2.3l9.6-42.7l-12.5-2.8l-9.6,42.7c0,0-0.7,2.9,2.3,3.6L53.3,107.2z"/>
	<path class="st16" d="M50.6,48c-7,5.6-8.2,15.8-2.6,22.8c5.6,7,15.8,8.2,22.8,2.6c7-5.6,8.2-15.8,2.6-22.8
		C67.9,43.6,57.7,42.4,50.6,48"/>
	<ellipse transform="matrix(0.7826 -0.6225 0.6225 0.7826 -24.61 51.028)" class="st17" cx="60.8" cy="60.7" rx="16.2" ry="16.3"/>
	<defs>
		<filter id="Adobe_OpacityMaskFilter" filterUnits="userSpaceOnUse" x="33.8" y="35" width="57.7" height="56.1">
			<feFlood  style="flood-color:white;flood-opacity:1" result="back"/>
			<feBlend  in="SourceGraphic" in2="back" mode="normal"/>
		</filter>
	</defs>
	<mask maskUnits="userSpaceOnUse" x="33.8" y="35" width="57.7" height="56.1" id="SVGID_41_">
		<g class="st18">
			
				<radialGradient id="SVGID_42_" cx="147.2947" cy="319.6217" r="1" gradientTransform="matrix(-10.7609 8.5596 8.5596 10.7609 -1090.0562 -4639.4326)" gradientUnits="userSpaceOnUse">
				<stop  offset="0" style="stop-color:#FFFFFF"/>
				<stop  offset="0.2894" style="stop-color:#FDFDFD"/>
				<stop  offset="0.427" style="stop-color:#F5F5F5"/>
				<stop  offset="0.5326" style="stop-color:#E8E8E8"/>
				<stop  offset="0.6218" style="stop-color:#D6D6D6"/>
				<stop  offset="0.7008" style="stop-color:#BEBEBE"/>
				<stop  offset="0.7725" style="stop-color:#A0A0A0"/>
				<stop  offset="0.8387" style="stop-color:#7D7D7D"/>
				<stop  offset="0.9006" style="stop-color:#545454"/>
				<stop  offset="0.9568" style="stop-color:#282828"/>
				<stop  offset="1" style="stop-color:#000000"/>
			</radialGradient>
			<polygon class="st19" points="180.7,74.4 47.1,180.7 -59.2,47.1 74.4,-59.2 			"/>
		</g>
	</mask>
	<g class="st20">
		<g>
			<defs>
				<rect id="SVGID_43_" x="33.8" y="35" width="57.7" height="56.1"/>
			</defs>
			<clipPath id="SVGID_44_">
				<use xlink:href="#SVGID_43_"  style="overflow:visible;"/>
			</clipPath>
			<path class="st21" d="M52.2,50c-5.9,4.7-6.9,13.4-2.2,19.3c4.7,5.9,13.4,6.9,19.3,2.2c5.9-4.7,6.9-13.4,2.2-19.3
				C66.8,46.2,58.1,45.3,52.2,50"/>
		</g>
	</g>
</g>
</svg>
